<svg width="28" height="28" xmlns="http://www.w3.org/2000/svg" viewBox="0 0 64 64">
<circle cx="32" cy="32" r="32" fill="#eee"/>
<circle cx="32" cy="8" r="5" fill="hsl(320, 70%, 53%)"/>
<circle cx="32" cy="20" r="5" fill="hsl(163, 70%, 15%)"/>
<circle cx="21.608" cy="14" r="5" fill="hsl(33, 70%, 35%)"/>
<circle cx="11.215" cy="20" r="5" fill="hsl(320, 70%, 75%)"/>
<circle cx="21.608" cy="26" r="5" fill="hsl(174, 70%, 75%)"/>
<circle cx="11.215" cy="32" r="5" fill="hsl(168, 70%, 15%)"/>
<circle cx="11.215" cy="44" r="5" fill="hsl(320, 70%, 75%)"/>
<circle cx="21.608" cy="38" r="5" fill="hsl(174, 70%, 75%)"/>
<circle cx="21.608" cy="50" r="5" fill="hsl(33, 70%, 35%)"/>
<circle cx="32" cy="56" r="5" fill="hsl(320, 70%, 53%)"/>
<circle cx="32" cy="44" r="5" fill="hsl(163, 70%, 15%)"/>
<circle cx="42.392" cy="50" r="5" fill="hsl(67, 70%, 35%)"/>
<circle cx="52.785" cy="44" r="5" fill="hsl(320, 70%, 75%)"/>
<circle cx="42.392" cy="38" r="5" fill="hsl(157, 70%, 15%)"/>
<circle cx="52.785" cy="32" r="5" fill="hsl(196, 70%, 15%)"/>
<circle cx="52.785" cy="20" r="5" fill="hsl(320, 70%, 75%)"/>
<circle cx="42.392" cy="26" r="5" fill="hsl(157, 70%, 15%)"/>
<circle cx="42.392" cy="14" r="5" fill="hsl(67, 70%, 35%)"/>
<circle cx="32" cy="32" r="5" fill="hsl(106, 70%, 15%)"/>
</svg>